<?xml version="1.0" encoding="UTF-8" standalone="no"?>
<svg
   version="1.1"
   viewBox="0 0 550 147"
   id="svg22"
   width="550"
   height="147"
   xmlns="http://www.w3.org/2000/svg"
   xmlnsSvg="http://www.w3.org/2000/svg">
  <desc
     id="desc2">Created with Snap</desc>
  <defs
     id="defs4" />
  <g
     transform="matrix(0.0375,0,0,0.0375,12.368,93.6262)"
     id="g20">
    <g
       id="g848"
       transform="translate(5022.287)">
      <g
         transform="matrix(25.9228,0,0,25.9228,1791.6717,103.67161)"
         id="g12">
        <path
           fill="#e8715b"
           d="m 241.92524,-35.802975 5.4,5.4 4.9,-4.8 3.4,-3.4 16.3,-16.3 -3.4,-3.4 -16.3,16.3 -2.1,-2.1 17.3,-17.3 -3.4,-3.4 -17.3,17.3 -2.2,-2.2 16.3,-16.3 -3.4,-3.4 -16.3,16.3 -3.4,3.4 -4.9,4.9 5.4,5.4 -9.8,8.9 -37.3,-37.4 -4.9,12 26.7,39.4 -30.4,27.3 9.2,9.2 26.1,-29.0000001 0.4,0.5 10.6,2.2 4.6,-3.4 25,27.6000001 9.2,-9.2000001 -34.6,-34.6999999 z m 6.8,-2.8 -1.4,1.5 -7.7,-7.7 1.4,-1.4 3.8,3.8 z m -57.2,51.5 -2,-1.9 19.8,-17.8000001 z m 67.1,-2 -24.6,-27.1 -6.4,4.7 -6.6,-1.4 -29.4,-43.6 1.2,-2.8 68,67.9999999 z"
           id="path6" />
        <desc
           id="desc8">Created with Snap</desc>
        <defs
           id="defs10" />
      </g>
      <g
         id="g18"
         transform="matrix(1.7469803,0,0,1.7469803,-4838.9622,294.86396)">
        <g
           transform="scale(0.5,-0.5)"
           id="g16">
          <path
             d="m 209,1094 q 30,-4 53,-4 h 39 q 15,0 31,2 l 6,51 q 31,261 96,563 -346,-92 -407,-162 -20,-12 -35,-12 -37,0 -37,37 0,99 420,213 50,13 82,22 19,80 35,135 21,31 51,31 37,0 37,-35 0,-14 -9,-28 l -16,-76 q 477,120 1098,129 35,-10 35,-35 0,-18 -15,-36 -15,-17 -35,-23 -621,-9 -1103,-133 -29,-144 -58,-287 -29,-142 -45,-289 l -6,-55 113,12 q 156,14 305,17 150,4 205,6 30,-12 30,-33 0,-21 -17,-39 -16,-17 -38,-21 -80,-4 -212,-7 -132,-2 -282,-13 L 414,1010 Q 366,647 268,188 248,97 225,-12 q -19,-41 -57,-41 -31,0 -35,41 114,541 142,727 29,187 42,284 -17,-2 -33,-2 h -34 q -44,0 -75,7 -30,7 -30,32 0,19 19,37 19,19 45,21 z m 1149,282 q 59,0 59,-59 0,-86 -60,-97 -17,-3 -37,-3 -20,0 -40,20 -20,20 -20,51 0,32 31,60 31,28 67,28 z M 1217,909 v 20 q 0,14 -15,68 0,25 17,45 17,21 41,21 25,0 41,-31 16,-31 16,-68 0,-37 -94,-442 -94,-405 -94,-427 0,-21 20,-21 13,0 37,25 24,26 41,26 33,0 33,-42 0,-41 -62,-72 -62,-31 -90,-31 -70,0 -70,112 0,23 9,51 10,29 20,79 11,51 30,138 20,87 40,180 21,93 50,225 30,133 30,144 z m 894,-99 q 0,99 -54,99 -72,0 -275,-413 -92,-187 -129,-283 -36,-95 -54,-134 -18,-39 -36,-59 -17,-20 -39,-20 -21,0 -25,10 -4,11 -4,38 0,28 80,472 81,445 93,468 13,23 23,29 10,7 36,7 26,0 40,-20 15,-20 15,-36 0,-15 -4,-30 -7,-27 -21,-67 -48,-137 -92,-388 l -21,-121 q 23,48 52,115 29,68 86,194 57,126 127,225 90,130 168,130 137,0 137,-221 0,-83 -24,-207 -23,-124 -52,-271 -28,-147 -31,-243 l -12,-55 q 0,-22 -7,-32 -6,-9 -39,-9 -32,0 -47,12 -14,12 -9,43 l 100,598 q 18,111 18,169 z m 891,132 98,430 q 10,46 48,237 39,192 57,267 l 4,25 q 0,26 17,44 18,19 37,19 44,0 44,-47 v -9 q 0,-49 -71,-373 -70,-324 -91,-456 -21,-132 -80,-369 -58,-237 -73,-320 -15,-83 -29,-141 -14,-57 -14,-114 0,-57 18,-115 -3,-24 -22,-41 -19,-16 -35,-16 -26,0 -45,61 -19,62 -19,103 0,42 12,98 -41,-124 -106,-184 -65,-59 -171,-59 -105,0 -150,86 -44,87 -44,170 0,306 116,518 54,98 95,145 42,47 107,90 65,43 160,43 95,0 137,-92 z m -74,-322 q 16,82 20,104 5,23 5,74 0,52 -30,101 -30,49 -85,49 -98,0 -180,-124 -81,-123 -130,-288 -48,-164 -48,-277 0,-113 64,-161 21,-16 56,-16 71,0 152,121 81,121 121,228 40,108 55,189 z M 4247,-63 v 2 q -7,-17 -37,-17 -37,0 -37,37 0,49 72,66 40,9 77,17 38,9 77,17 47,131 66,248 19,118 29,196 10,79 23,171 -88,114 -226,900 -35,202 -54,343 0,26 15,45 15,20 38,20 23,0 45,-18 8,-11 8,-28 0,-16 -10,-29 12,-86 25,-182 89,-656 206,-947 46,102 150,373 104,272 200,464 97,193 226,349 13,16 35,16 41,0 41,-34 0,-22 -17,-41 -166,-178 -339,-619 -47,-119 -123,-319 -75,-200 -111,-271 -31,-120 -67,-313 -36,-193 -66,-309 52,6 102,6 199,0 199,-55 0,-22 -21,-39 -20,-17 -45,-17 -63,17 -163,17 -99,0 -200,-25 -100,-24 -112,-24 z m 1239,1097 q 189,0 189,-286 0,-223 -123,-479 -83,-172 -200,-248 -60,-39 -124,-39 -113,0 -162,90 -49,90 -49,194 0,186 62,361 63,175 170,291 108,116 237,116 z M 5218,703 q -108,-216 -108,-422 0,-143 79,-192 24,-15 55,-15 64,0 143,111 79,111 133,273 54,163 54,279 0,117 -14,148 -13,31 -31,43 -17,12 -58,12 -40,0 -88,-32 -93,-60 -165,-205 z M 6334,-49 q -61,0 -61,164 0,106 20,217 21,111 43,217 -37,-66 -70,-136 -33,-69 -58,-112 -25,-42 -40,-71 -129,-246 -240,-246 -110,0 -110,219 0,281 89,637 l 31,124 q 19,68 64,68 26,0 35,-35 -3,-32 -16,-59 -13,-27 -19,-60 -88,-444 -88,-606 l -2,-96 q 0,-82 27,-82 78,0 265,368 29,56 71,141 42,85 66,129 24,45 43,86 79,173 136,173 35,0 35,-39 0,-38 -39,-126 -39,-88 -64,-180 -72,-257 -89,-537 V 98 q 0,-30 12,-45 13,-14 19,-21 6,-6 6,-27 0,-20 -24,-37 -23,-17 -42,-17 z m 354,53 46,244 q 36,187 49,265 13,79 29,173 17,95 68,272 -2,5 -2,9 v 10 q 0,48 37,69 11,7 23,7 43,0 43,-62 0,-36 -29,-130 -29,-93 -45,-173 14,23 34,58 21,35 65,102 45,67 112,127 68,61 138,61 71,0 108,-38 14,-13 14,-33 0,-20 -18,-36 -18,-16 -37,-16 -19,0 -37,10 -18,11 -40,11 -22,0 -70,-36 -191,-139 -315,-551 -33,-110 -40,-152 -7,-41 -12,-67 -30,-161 -92,-161 -29,0 -29,37 z m 3062,1929 q 27,49 59,49 33,0 33,-30 0,-3 0,-6 -61,-1017 -68,-1870 13,-26 -1,-52 -24,-49 -56,-49 -39,0 -42,69 -1,20 -1,127 0,107 5,304 6,197 13,395 8,199 16,396 8,198 13,391 -99,-221 -344,-687 -244,-465 -328,-634 -23,-43 -52,-43 -29,0 -40,29 -52,240 -158,715 -106,475 -145,669 -67,-340 -212,-938 -145,-598 -179,-750 -20,-41 -57,-41 -31,0 -35,41 65,357 221,1004 156,648 215,909 6,20 23,34 18,15 33,15 29,0 38,-34 85,-368 171,-785 87,-417 142,-651 137,236 254,469 117,233 230,460 114,227 252,494 z m 704,-1765 q 35,0 35,-37 0,-43 -105,-97 -105,-54 -175,-54 -70,0 -105,23 -35,23 -57,64 -43,80 -43,193 0,200 60,377 60,177 160,293 100,117 216,117 62,0 97,-52 36,-51 36,-121 0,-131 -69,-222 -68,-91 -168,-149 -100,-58 -230,-110 l -4,-147 q 0,-172 104,-172 56,0 117,32 62,33 89,47 27,15 42,15 z m 25,702 q 0,80 -67,80 -60,0 -141,-108 -81,-108 -134,-285 -13,-43 -15,-65 40,22 82,42 42,20 82,42 92,51 142,119 51,69 51,175 z M 10750,0 q -117,0 -117,147 0,147 109,360 110,214 258,369 148,156 241,156 94,0 107,-82 4,-25 6,-53 9,6 22,6 47,0 47,-45 v -8 q 0,-3 -25,-90 -25,-87 -57,-290 -32,-203 -32,-347 9,-6 21,-14 12,-7 30,-23 18,-15 18,-36 0,-21 -13,-38 -13,-16 -37,-16 -49,0 -89,50 -39,50 -39,108 0,125 68,430 -85,-178 -220,-343 Q 10913,76 10861,38 10810,0 10750,0 Z m -15,143 q 0,-37 31,-37 22,0 37,15 207,178 371,493 93,180 98,207 6,27 6,46 0,19 -10,36 -10,17 -28,17 -18,0 -53,-19 -77,-42 -190,-179 -112,-137 -187,-298 -75,-161 -75,-281 z m 1176,-18 q 45,0 45,-46 0,-45 -60,-70 -59,-25 -136,-25 -76,0 -112,41 -36,41 -36,100 0,59 6,108 7,50 23,138 16,88 37,198 21,110 47,236 26,126 53,257 27,131 54,260 28,129 53,245 25,117 46,214 21,98 35,165 9,32 46,32 43,0 43,-47 v -26 q -39,-187 -77,-364 -38,-177 -130,-614 -91,-437 -118,-591 -26,-154 -26,-185 0,-31 19,-55 19,-24 44,-24 26,0 47,8 21,9 41,18 20,10 36,18 16,9 20,9 z"
             fill="#072a55"
             id="path14" />
        </g>
      </g>
    </g>
  </g>
</svg>
